<svg width="492" height="59" viewBox="0 0 492 59" fill="none" xmlns="http://www.w3.org/2000/svg">
<g clip-path="url(#clip0_104_24)">
<path d="M1.18411 45.268C0.590113 45.268 0.266113 44.89 0.266113 44.296V2.284C0.266113 1.69 0.590113 1.312 1.18411 1.312H10.4721C11.0661 1.312 11.4441 1.69 11.4441 2.284V17.566H27.6981V2.284C27.6981 1.69 28.0221 1.312 28.6161 1.312H37.9041C38.4441 1.312 38.8761 1.69 38.8761 2.284V44.296C38.8761 44.89 38.4441 45.268 37.9041 45.268H28.6161C28.0221 45.268 27.6981 44.89 27.6981 44.296V28.096H11.4441V44.296C11.4441 44.89 11.0661 45.268 10.4721 45.268H1.18411ZM48.3814 45.268C47.7874 45.268 47.4634 44.89 47.4634 44.296V2.284C47.4634 1.69 47.7874 1.312 48.3814 1.312H57.6694C58.2634 1.312 58.6414 1.69 58.6414 2.284V44.296C58.6414 44.89 58.2634 45.268 57.6694 45.268H48.3814ZM66.592 55.636C65.89 55.636 65.566 55.15 65.782 54.556L68.914 45.268C66.862 44.296 65.512 42.406 65.512 39.868C65.512 36.358 68.266 33.874 71.776 33.874C75.34 33.874 77.986 36.358 77.986 39.868C77.986 42.676 77.122 44.728 74.8 49.858L72.478 54.934C72.316 55.366 71.938 55.636 71.398 55.636H66.592ZM104.491 45.268C103.897 45.268 103.573 44.89 103.573 44.296V2.284C103.573 1.69 103.897 1.312 104.491 1.312H113.779C114.373 1.312 114.751 1.69 114.751 2.284V44.296C114.751 44.89 114.373 45.268 113.779 45.268H104.491ZM123.619 19.294C122.971 19.294 122.647 18.808 122.863 18.16L125.563 10.546C123.619 9.682 122.431 7.954 122.431 5.686C122.431 2.608 124.753 0.447998 128.047 0.447998C131.287 0.447998 133.663 2.608 133.663 5.686C133.663 7.522 133.069 9.412 130.585 14.704L128.749 18.538C128.533 19.024 128.155 19.294 127.669 19.294H123.619ZM141.176 45.268C140.582 45.268 140.204 44.89 140.204 44.296V14.38C140.204 13.84 140.582 13.462 141.176 13.462H148.736C149.33 13.462 149.708 13.732 149.708 14.38L149.87 17.404C152.138 14.326 155.486 12.868 159.644 12.868C164.18 12.868 167.582 14.596 169.526 17.728C171.794 14.434 175.412 12.868 179.786 12.868C187.13 12.868 191.342 17.242 191.342 24.532V44.296C191.342 44.89 191.018 45.268 190.478 45.268H181.568C181.028 45.268 180.596 44.89 180.596 44.296V28.582C180.596 24.154 179.192 22.318 176.276 22.318C173.198 22.318 171.2 24.694 171.2 29.338V44.296C171.2 44.89 170.822 45.268 170.228 45.268H161.372C160.778 45.268 160.4 44.89 160.4 44.296V28.582C160.4 24.154 159.05 22.318 156.08 22.318C153.056 22.318 151.004 24.694 151.004 29.338V44.296C151.004 44.89 150.626 45.268 150.032 45.268H141.176ZM228.332 46.132C220.448 46.132 215.48 41.596 213.752 34.738C213.698 34.576 213.698 34.468 213.698 34.36C213.698 33.928 213.914 33.658 214.4 33.55L222.608 31.336C222.716 31.282 222.878 31.282 222.986 31.282C223.364 31.282 223.688 31.552 223.796 31.984C224.498 33.928 225.848 35.278 228.116 35.278C231.788 35.278 232.922 32.47 232.922 28.42V11.788H221.906C221.312 11.788 220.934 11.41 220.934 10.87V2.284C220.934 1.69 221.312 1.312 221.906 1.312H243.128C243.722 1.312 244.1 1.69 244.1 2.284V29.23C244.1 41.326 237.944 46.132 228.332 46.132ZM263.028 45.862C255.576 45.862 251.31 41.434 251.31 34.198V14.38C251.31 13.84 251.688 13.462 252.282 13.462H261.138C261.732 13.462 262.11 13.84 262.11 14.38V30.202C262.11 34.63 263.46 36.412 266.592 36.412C269.67 36.412 271.83 34.09 271.83 29.392V14.38C271.83 13.84 272.208 13.462 272.802 13.462H281.658C282.252 13.462 282.63 13.84 282.63 14.38V44.296C282.63 44.89 282.252 45.268 281.658 45.268H274.206C273.558 45.268 273.18 44.944 273.18 44.296L273.018 41.434C270.696 44.404 267.24 45.862 263.028 45.862ZM290.573 45.268C289.979 45.268 289.601 44.89 289.601 44.296V14.38C289.601 13.84 289.979 13.462 290.573 13.462H298.079C298.673 13.462 299.105 13.786 299.105 14.38L299.213 17.188C301.535 14.326 305.045 12.868 309.257 12.868C316.817 12.868 321.083 17.242 321.083 24.532V44.296C321.083 44.89 320.705 45.268 320.111 45.268H311.255C310.661 45.268 310.283 44.89 310.283 44.296V28.582C310.283 24.154 308.879 22.318 305.747 22.318C302.615 22.318 300.401 24.694 300.401 29.338V44.296C300.401 44.89 300.023 45.268 299.429 45.268H290.573ZM331.751 58.336C331.049 58.336 330.779 57.85 330.995 57.256L336.719 43L324.083 14.542C324.029 14.38 323.975 14.272 323.975 14.11C323.975 13.732 324.299 13.462 324.839 13.462H334.451C334.883 13.462 335.261 13.732 335.531 14.164L342.119 31.012L348.707 14.164C348.923 13.732 349.301 13.462 349.841 13.462H358.589C359.075 13.462 359.399 13.732 359.399 14.11C359.399 14.218 359.345 14.38 359.291 14.542L341.687 57.58C341.471 58.066 341.093 58.336 340.607 58.336H331.751ZM375.234 45.862C366.378 45.862 360.438 39.22 360.438 29.338C360.438 19.456 366.378 12.868 375.234 12.868C379.284 12.868 382.47 14.434 384.792 17.188L384.9 14.38C384.9 13.786 385.332 13.462 385.872 13.462H393.378C393.972 13.462 394.35 13.84 394.35 14.38V44.296C394.35 44.89 393.972 45.268 393.378 45.268H385.872C385.332 45.268 384.9 44.89 384.9 44.296L384.792 41.488C382.47 44.296 379.284 45.862 375.234 45.862ZM371.346 29.338C371.346 33.496 373.992 36.412 377.88 36.412C381.768 36.412 384.414 33.496 384.414 29.338C384.414 25.18 381.768 22.318 377.88 22.318C373.992 22.318 371.346 25.18 371.346 29.338ZM418.248 46.132C407.124 46.132 400.482 37.6 400.482 23.29C400.482 8.98 407.124 0.447998 418.248 0.447998C429.48 0.447998 436.068 8.98 436.068 23.29C436.068 37.6 429.48 46.132 418.248 46.132ZM411.66 23.29C411.66 31.984 414.36 35.332 418.248 35.332C422.19 35.332 424.89 31.984 424.89 23.29C424.89 14.596 422.19 11.248 418.248 11.248C414.36 11.248 411.66 14.596 411.66 23.29ZM457.226 46.132C449.18 46.132 442.97 41.596 440.864 34.036C440.864 33.928 440.864 33.82 440.864 33.712C440.864 33.28 441.08 33.01 441.566 32.848L449.504 30.85C449.612 30.796 449.72 30.796 449.828 30.796C450.206 30.796 450.476 31.066 450.692 31.498C451.826 34.36 453.824 35.872 457.01 35.872C460.628 35.872 462.626 34.09 462.626 31.336C462.626 28.474 460.358 26.962 456.74 26.962H454.688C454.094 26.962 453.716 26.584 453.716 25.99V19.402C453.716 18.862 454.094 18.484 454.688 18.484H456.848C459.71 18.484 461.762 16.864 461.762 14.596C461.762 12.166 459.764 10.492 456.848 10.492C454.148 10.492 452.312 11.95 451.178 14.92C450.908 15.46 450.53 15.73 449.936 15.568L441.944 13.624C441.35 13.516 441.026 13.084 441.134 12.49C443.294 4.822 449.504 0.447998 457.388 0.447998C466.46 0.447998 472.94 5.632 472.94 12.652C472.94 16.648 470.564 20.104 466.136 22.318C471.158 23.992 474.02 27.718 474.02 32.848C474.02 40.84 467.324 46.132 457.226 46.132ZM481.801 30.472C481.261 30.472 480.829 30.094 480.829 29.5L480.127 2.284C480.127 1.744 480.505 1.312 481.099 1.312H489.955C490.549 1.312 490.873 1.744 490.873 2.284L490.171 29.5C490.171 30.094 489.793 30.472 489.199 30.472H481.801ZM479.371 39.976C479.371 36.52 482.071 34.144 485.527 34.144C488.929 34.144 491.629 36.52 491.629 39.976C491.629 43.486 488.929 45.862 485.527 45.862C482.071 45.862 479.371 43.486 479.371 39.976Z" fill="black"/>
</g>
<defs>
<clipPath id="clip0_104_24">
<rect width="492" height="59" fill="white"/>
</clipPath>
</defs>
</svg>
