<svg xmlns="http://www.w3.org/2000/svg" version="1.1" xmlns:xlink="http://www.w3.org/1999/xlink" xmlns:svgjs="http://svgjs.dev/svgjs" width="150" height="150"><svg width="150" height="150" viewBox="0 0 150 150" fill="none" xmlns="http://www.w3.org/2000/svg">
<path d="M55.9323 99.2447C44.2994 99.2447 37.3535 90.3223 37.3535 75.3576C37.3535 60.3929 44.2994 51.4706 55.9323 51.4706C67.6782 51.4706 74.5676 60.3929 74.5676 75.3576C74.5676 90.3223 67.6782 99.2447 55.9323 99.2447ZM49.0429 75.3576C49.0429 84.4494 51.8665 87.9505 55.9323 87.9505C60.0547 87.9505 62.8782 84.4494 62.8782 75.3576C62.8782 66.2658 60.0547 62.7647 55.9323 62.7647C51.8665 62.7647 49.0429 66.2658 49.0429 75.3576ZM96.6937 99.2447C88.2796 99.2447 81.7855 94.5011 79.5829 86.5953C79.5829 86.4823 79.5829 86.3694 79.5829 86.2564C79.5829 85.8047 79.8088 85.5223 80.317 85.3529L88.6185 83.2635C88.7314 83.207 88.8443 83.207 88.9573 83.207C89.3526 83.207 89.6349 83.4894 89.8608 83.9411C91.0467 86.9341 93.1361 88.5152 96.4679 88.5152C100.251 88.5152 102.341 86.6517 102.341 83.7717C102.341 80.7788 99.969 79.1976 96.1855 79.1976H94.0396C93.4184 79.1976 93.0232 78.8023 93.0232 78.1811V71.2917C93.0232 70.727 93.4184 70.3317 94.0396 70.3317H96.2985C99.2914 70.3317 101.437 68.6376 101.437 66.2658C101.437 63.7247 99.3479 61.9741 96.2985 61.9741C93.4749 61.9741 91.5549 63.4988 90.369 66.6047C90.0867 67.1694 89.6914 67.4517 89.0702 67.2823L80.7123 65.2494C80.0912 65.1364 79.7523 64.6847 79.8653 64.0635C82.1243 56.0447 88.6185 51.4706 96.8632 51.4706C106.35 51.4706 113.127 56.8917 113.127 64.2329C113.127 68.4117 110.642 72.0258 106.011 74.3411C111.263 76.0917 114.256 79.9882 114.256 85.3529C114.256 93.7105 107.254 99.2447 96.6937 99.2447Z" fill="black"></path>
</svg><style>@media (prefers-color-scheme: light) { :root { filter: none; } }
@media (prefers-color-scheme: dark) { :root { filter: none; } }
</style></svg>